<?xml version="1.0" encoding="UTF-8" standalone="no"?><!DOCTYPE svg PUBLIC "-//W3C//DTD SVG 1.1//EN" "http://www.w3.org/Graphics/SVG/1.1/DTD/svg11.dtd"><svg width="100%" height="100%" viewBox="0 0 3630 1171" version="1.1" xmlns="http://www.w3.org/2000/svg" xmlns:xlink="http://www.w3.org/1999/xlink" xml:space="preserve" xmlns:serif="http://www.serif.com/" style="fill-rule:evenodd;clip-rule:evenodd;stroke-linecap:round;stroke-linejoin:round;stroke-miterlimit:1.5;"><g><path d="M386.864,54.963l-57.323,43.057l115.904,360.809l57.324,-43.058l-115.905,-360.808Z" style="fill:#b06d13;stroke:#000;stroke-width:15.56px;"/><path d="M3255.77,74.626l57.324,43.058l-115.905,360.808l-57.323,-43.058l115.904,-360.808Z" style="fill:#b06d13;stroke:#000;stroke-width:15.56px;"/><path d="M1470.93,55.198l-41.64,31.276l115.905,360.808l41.639,-31.276l-115.904,-360.808Z" style="fill:#b06d13;stroke:#000;stroke-width:15.56px;"/><path d="M1101.95,45.834l72.77,54.661l-115.904,360.808l-72.771,-54.66l115.905,-360.809Z" style="fill:#b06d13;stroke:#000;stroke-width:15.56px;"/><path d="M2540.68,65.498l-72.77,54.66l115.904,360.808l72.77,-54.66l-115.904,-360.808Z" style="fill:#b06d13;stroke:#000;stroke-width:15.56px;"/><path d="M2146.23,55.198l41.639,31.276l-115.904,360.808l-41.639,-31.276l115.904,-360.808Z" style="fill:#b06d13;stroke:#000;stroke-width:15.56px;"/><g><path d="M357.135,97.258l-22.269,16.728l108.608,338.095l22.27,-16.727l-108.609,-338.096Z" style="fill:#925d17;"/><path d="M3285.49,116.922l22.27,16.727l-108.608,338.095l-22.27,-16.727l108.608,-338.095Z" style="fill:#925d17;"/><path d="M1456.06,79.114l-12.816,9.627l108.608,338.095l12.816,-9.627l-108.608,-338.095Z" style="fill:#925d17;"/><path d="M1142.17,90.66l22.269,16.728l-108.608,338.095l-22.269,-16.727l108.608,-338.096Z" style="fill:#925d17;"/><path d="M2500.46,110.324l-22.27,16.727l108.608,338.095l22.27,-16.727l-108.608,-338.095Z" style="fill:#925d17;"/><path d="M2161.1,79.114l22.27,16.728l-108.608,338.095l-22.27,-16.728l108.608,-338.095Z" style="fill:#925d17;"/><path d="M3294.58,90.356l239.997,1064.83l-20.618,-0l-235.049,-1049.95l15.67,-14.881Z" style="fill:#925d17;"/></g><g><path d="M1064.5,125.052l-2.82,-12.865l-720.746,-0.672l-228.739,1043.44l-96.992,-0.912l228.56,-1042.62l-121.672,-0.113l0.921,-96.109l1113.71,1.039l0.01,-1.039l1113.72,1.039l0.01,-1.039l1150.14,1.073l-0.921,96.108l-113.338,-0.105l228.372,1041.77l-96.992,0.912l-228.592,-1042.77l-720.745,-0.672l-2.968,13.537l-97.192,0l2.988,-13.628l-85.248,-0.079l-0.01,1.038l-113.338,-0.105l2.8,12.774l-97.191,0l-2.821,-12.865l-720.746,-0.672l-2.967,13.537l-97.192,0l2.988,-13.628l-85.248,-0.079l-0.01,1.038l-113.338,-0.105l2.8,12.774l-97.192,0Z" style="stroke:#000;stroke-width:30.4px;"/><path d="M1066.5,125.052l-1.778,-8.084l-725.073,-0.674l-230.113,1046.46l-97.574,-0.915l229.931,-1045.63l-122.401,-0.114l0.926,-96.386l1113.71,1.035l0.01,-1.035l1113.71,1.035l0.01,-1.035l1157.05,1.075l-0.927,96.386l-114.019,-0.106l229.744,1044.78l-97.574,0.915l-229.965,-1045.79l-725.073,-0.674l-1.926,8.758l-97.775,0l1.946,-8.848l-79.073,-0.074l-0.01,1.035l-114.019,-0.106l1.758,7.993l-97.775,0l-1.778,-8.084l-725.073,-0.674l-1.926,8.758l-97.775,0l1.946,-8.848l-79.073,-0.074l-0.01,1.035l-114.019,-0.106l1.758,7.993l-97.775,0Z" style="fill:#b06d13;stroke:#000;stroke-width:13.82px;"/></g><path d="M324.04,92.074l6.854,24.381l2965.46,4.189l-4.247,-28.294l-2968.07,-0.276Z" style="fill:#925d17;"/><path d="M322.802,90.954l-239.997,1062.26l20.618,0l235.049,-1047.41l-15.67,-14.845Z" style="fill:#925d17;"/><path d="M3295.02,93.292l243.626,1064.83l-20.93,0l-238.603,-1049.95l15.907,-14.881Z" style="fill:#925d17;"/></g><g><path d="M729.673,295.229c224.321,-13.43 417.345,157.781 430.774,382.094c13.43,224.314 -157.787,417.332 -382.108,430.763c-224.321,13.43 -417.345,-157.781 -430.775,-382.095c-13.43,-224.314 157.788,-417.332 382.109,-430.762Z"/><path d="M734.857,312.979c211.921,-12.687 394.248,148.627 406.904,360.009c12.656,211.383 -149.123,393.299 -361.043,405.987c-211.921,12.688 -394.248,-148.627 -406.904,-360.009c-12.656,-211.382 149.123,-393.299 361.043,-405.987Z" style="fill:#f3cf00;"/><path d="M747.941,578.171c70.246,-4.205 130.694,49.469 134.904,119.786c4.21,70.316 -49.403,130.819 -119.648,135.025c-70.246,4.205 -130.694,-49.468 -134.904,-119.785c-4.21,-70.317 49.402,-130.82 119.648,-135.026Z"/><path d="M755.81,581.2c64.637,-3.87 120.268,45.675 124.153,110.571c3.886,64.897 -45.437,120.726 -110.073,124.596c-64.636,3.869 -120.267,-45.676 -124.153,-110.572c-3.885,-64.896 45.437,-120.726 110.073,-124.595Z" style="fill:#f3da01;"/><path d="M724.569,596.885c12.011,-6.54 25.595,-10.604 40.118,-11.473c51.646,-3.092 96.318,35.342 101.873,86.582c-17.409,-48.6 -65.034,-82.039 -118.814,-78.819c-7.978,0.478 -15.725,1.74 -23.177,3.71Z" style="fill:#fffe9e;"/><path d="M681.329,614.06c-14.273,20.301 -22.001,45.136 -20.424,71.487c3.788,63.267 59.798,111.462 124.998,107.558c31.1,-1.862 58.71,-15.243 78.672,-35.597c-19.036,33.169 -53.796,56.411 -94.685,58.859c-64.636,3.869 -120.267,-45.676 -124.153,-110.572c-2.137,-35.706 11.832,-68.667 35.592,-91.735Z" style="fill:#ecc503;"/><path d="M458.415,452.584c-33.235,61.795 -50.323,133.72 -45.79,209.436c12.74,212.806 191.481,375.496 398.899,363.078c139.8,-8.37 257.174,-94.165 314.931,-214.345c-46.597,148.18 -181.046,259.666 -345.609,269.519c-212.779,12.739 -395.845,-149.229 -408.551,-361.467c-6.004,-100.283 27.093,-193.96 86.12,-266.221Z" style="fill:#f3b700;"/><path d="M798.14,332.413c61.824,26.144 88.013,32.226 153.617,81.707c56.308,42.469 95.953,89.265 120.534,116.112c-40.085,-121.343 -148.981,-205.328 -271.453,-197.995c-0.907,0.054 -1.813,0.113 -2.698,0.176Z" style="fill:#fffe9e;"/></g><g><path d="M1555.09,394.836c172.601,-143.908 429.562,-120.617 573.464,51.978c143.903,172.595 120.604,429.555 -51.997,573.463c-172.601,143.907 -429.561,120.616 -573.464,-51.979c-143.903,-172.595 -120.604,-429.555 51.997,-573.462Z"/><path d="M1569.79,406.048c163.06,-135.952 405.539,-114.281 541.146,48.364c135.606,162.645 113.318,405.068 -49.741,541.02c-163.06,135.953 -405.539,114.281 -541.145,-48.364c-135.607,-162.645 -113.319,-405.068 49.74,-541.02Z" style="fill:#f3cf00;"/><path d="M1737.67,611.754c54.049,-45.064 134.554,-37.725 179.664,16.379c45.11,54.104 37.852,134.617 -16.197,179.681c-54.05,45.064 -134.554,37.725 -179.664,-16.38c-45.11,-54.104 -37.853,-134.616 16.197,-179.68Z"/><path d="M1745.8,609.522c49.734,-41.466 123.911,-34.591 165.544,15.342c41.632,49.934 35.055,124.138 -14.679,165.604c-49.733,41.466 -123.911,34.591 -165.543,-15.342c-41.633,-49.934 -35.056,-124.138 14.678,-165.604Z" style="fill:#f3da01;"/><path d="M1729.96,640.685c5.788,-12.391 14.311,-23.722 25.486,-33.039c39.738,-33.132 98.501,-28.7 133.375,9.251c-42.85,-28.792 -101.026,-27.452 -142.406,7.049c-6.138,5.118 -11.626,10.731 -16.455,16.739Z" style="fill:#fffe9e;"/><path d="M1705.34,680.165c0.556,24.81 9.07,49.387 25.975,69.662c40.587,48.68 114.268,54.243 164.436,12.416c23.929,-19.952 38.214,-47.106 42.206,-75.334c4.358,37.995 -9.833,77.328 -41.295,103.559c-49.733,41.466 -123.911,34.591 -165.543,-15.342c-22.906,-27.474 -31.219,-62.294 -25.779,-94.961Z" style="fill:#ecc503;"/><path d="M1430.1,682.446c9.912,69.462 38.832,137.497 87.406,195.756c136.52,163.741 376.928,188.647 536.523,55.583c107.567,-89.685 151.144,-228.388 126.329,-359.397c50.411,146.927 8.333,316.441 -118.287,422.012c-163.72,136.503 -407.181,114.744 -543.337,-48.56c-64.333,-77.161 -93.273,-172.205 -88.634,-265.394Z" style="fill:#f3b700;"/><path d="M1632.26,384.144c65.278,-15.637 89.967,-26.281 172.135,-25.375c70.523,0.777 130.201,14.922 165.917,21.949c-104.263,-73.893 -241.75,-76.886 -335.985,1.683c-0.698,0.582 -1.392,1.167 -2.067,1.743Z" style="fill:#fffe9e;"/></g><g><path d="M2503.17,565.406c88.225,-206.68 327.645,-302.853 534.318,-214.632c206.674,88.222 302.84,327.645 214.615,534.326c-88.225,206.68 -327.645,302.854 -534.318,214.632c-206.674,-88.222 -302.84,-327.645 -214.615,-534.326Z"/><path d="M2521.36,568.7c83.348,-195.255 309.135,-286.281 503.894,-203.146c194.759,83.136 285.211,309.154 201.863,504.409c-83.347,195.255 -309.134,286.282 -503.893,203.146c-194.759,-83.135 -285.211,-309.154 -201.864,-504.409Z" style="fill:#f3cf00;"/><path d="M2764.45,675.498c27.628,-64.721 102.656,-94.814 167.443,-67.159c64.787,27.656 94.956,102.654 67.329,167.375c-27.627,64.722 -102.656,94.814 -167.443,67.159c-64.787,-27.655 -94.956,-102.653 -67.329,-167.375Z"/><path d="M2770.68,669.811c25.421,-59.553 94.604,-87.181 154.396,-61.658c59.793,25.524 87.698,94.595 62.277,154.149c-25.421,59.553 -94.604,87.181 -154.397,61.658c-59.792,-25.524 -87.698,-94.595 -62.276,-154.149Z" style="fill:#f3da01;"/><path d="M2770.75,704.77c-0.484,-13.668 1.951,-27.637 7.663,-41.018c20.312,-47.584 74.657,-70.373 122.979,-52.446c-51.257,-6.142 -102.453,21.52 -123.604,71.071c-3.138,7.35 -5.471,14.845 -7.038,22.393Z" style="fill:#fffe9e;"/><path d="M2766.79,751.127c11.783,21.84 30.547,39.852 54.826,50.215c58.291,24.883 126.435,-3.687 152.078,-63.76c12.232,-28.655 12.598,-59.335 3.309,-86.287c21.168,31.851 26.427,73.333 10.345,111.007c-25.421,59.553 -94.604,87.181 -154.397,61.658c-32.898,-14.043 -56.143,-41.269 -66.161,-72.833Z" style="fill:#ecc503;"/><path d="M2522.72,878.391c40.43,57.345 97.139,104.773 166.901,134.552c196.071,83.695 421.485,-3.508 503.062,-194.615c54.982,-128.805 30.679,-272.147 -51.025,-377.52c111.74,107.901 151.397,277.998 86.675,429.62c-83.685,196.046 -310.387,287.441 -505.934,203.969c-92.396,-39.441 -161.411,-110.91 -199.679,-196.006Z" style="fill:#f3b700;"/><path d="M2567.03,520.771c51.015,-43.625 68.158,-64.337 141.741,-100.915c63.154,-31.396 122.733,-45.952 157.735,-55.945c-126.466,-18.363 -250.26,41.527 -298.428,154.368c-0.357,0.836 -0.709,1.673 -1.048,2.492Z" style="fill:#fffe9e;"/></g></svg>