<?xml version="1.0" encoding="UTF-8" standalone="no"?><!DOCTYPE svg PUBLIC "-//W3C//DTD SVG 1.1//EN" "http://www.w3.org/Graphics/SVG/1.1/DTD/svg11.dtd"><svg width="100%" height="100%" viewBox="0 0 921 918" version="1.1" xmlns="http://www.w3.org/2000/svg" xmlns:xlink="http://www.w3.org/1999/xlink" xml:space="preserve" xmlns:serif="http://www.serif.com/" style="fill-rule:evenodd;clip-rule:evenodd;stroke-linecap:round;stroke-linejoin:round;stroke-miterlimit:1.5;"><g><path d="M517.133,878.246c-79.249,-17.844 -475.368,-380.748 -490.344,-429.045c-50.893,-164.124 -19.514,-428.675 249.651,-442.724c12.098,-0.631 379.836,140.29 489.696,240.803c-19.786,-9.082 -53.366,-50.275 -91.85,-63.2c-26.136,-8.778 -60.612,-9.391 -75.853,-9.391c-165.207,0 -299.333,160.63 -299.333,358.48c-0,164.117 92.288,302.623 218.033,345.077Z" style="fill:#312a00;stroke:#000;stroke-width:12.95px;"/><ellipse cx="598.433" cy="533.169" rx="299.333" ry="358.48" style="fill:#f3b700;"/><ellipse cx="602.299" cy="531.88" rx="290.747" ry="348.198" style="fill:#f3da01;"/><ellipse cx="618.115" cy="552.866" rx="293.719" ry="355.919" style="fill:#c8a76d;stroke:#000;stroke-width:16.44px;"/><ellipse cx="623.582" cy="559.431" rx="266.337" ry="322.739" style="fill:#d5af6d;"/><path d="M481.521,299.43c-39.74,34.919 -72.073,92.569 -87.252,164.116c-14.489,68.289 -10.699,136.744 7.172,192.895c-8.813,-43.003 -6.108,-111.948 9.53,-185.656c16.866,-79.495 44.362,-143.736 70.55,-171.355Z" style="fill:#f2dd9b;"/><path d="M857.037,553.981c6.755,40.68 1.548,89.831 -17.178,137.329c-17.873,45.335 -44.792,80.87 -74.13,102.028c20.072,-18.841 43.978,-58.16 63.27,-107.093c20.806,-52.774 30.803,-102.927 28.038,-132.264Z" style="fill:#cecdc0;"/></g></svg>