<?xml version="1.0" encoding="UTF-8" standalone="no"?><!DOCTYPE svg PUBLIC "-//W3C//DTD SVG 1.1//EN" "http://www.w3.org/Graphics/SVG/1.1/DTD/svg11.dtd"><svg width="100%" height="100%" viewBox="0 0 923 920" version="1.1" xmlns="http://www.w3.org/2000/svg" xmlns:xlink="http://www.w3.org/1999/xlink" xml:space="preserve" xmlns:serif="http://www.serif.com/" style="fill-rule:evenodd;clip-rule:evenodd;stroke-linecap:round;stroke-linejoin:round;stroke-miterlimit:1.5;"><g><g><path d="M519.312,880.424c-79.25,-17.844 -475.368,-380.748 -490.345,-429.045c-50.893,-164.124 -19.514,-428.675 249.651,-442.723c12.099,-0.632 379.836,140.289 489.696,240.802c-19.785,-9.082 -53.365,-50.275 -91.85,-63.2c-26.135,-8.777 -60.612,-9.391 -75.853,-9.391c-165.206,0 -299.333,160.63 -299.333,358.48c-0,164.117 92.288,302.624 218.034,345.077Z" style="fill:#5c4d31;stroke:#000;stroke-width:17.31px;"/><ellipse cx="600.611" cy="535.347" rx="299.333" ry="358.48" style="fill:#f3b700;"/><ellipse cx="604.477" cy="534.059" rx="290.747" ry="348.198" style="fill:#f3da01;"/><ellipse cx="620.293" cy="555.044" rx="293.719" ry="355.919" style="fill:#c8a76d;stroke:#000;stroke-width:16.44px;"/><ellipse cx="625.761" cy="561.61" rx="266.337" ry="322.739" style="fill:#d5af6d;"/><path d="M483.699,301.608c-39.74,34.92 -72.073,92.569 -87.252,164.116c-14.488,68.289 -10.699,136.744 7.172,192.896c-8.813,-43.004 -6.107,-111.949 9.53,-185.657c16.866,-79.494 44.362,-143.736 70.55,-171.355Z" style="fill:#f2dd9b;"/><path d="M45.965,167.32c4.961,-2.383 32.257,-139.848 225.956,-155.158c46.761,-3.696 364.026,157.276 364.026,157.276c-0,-0 -191.348,-28.412 -287.996,157.152l-301.986,-159.27Z" style="fill:#5e4e39;"/><path d="M21.093,294.274l276.279,249.775c-0,-0 -19.652,91.867 69.586,232.922c-90.026,-85.05 -285.812,-259.031 -328.925,-319.957c-0,-0 -25.548,-113.423 -16.94,-162.74Z" style="fill:#5a482d;"/><path d="M859.215,556.16c6.755,40.679 1.548,89.83 -17.178,137.328c-17.873,45.335 -44.792,80.87 -74.13,102.029c20.073,-18.842 43.978,-58.161 63.27,-107.094c20.806,-52.774 30.803,-102.926 28.038,-132.263Z" style="fill:#cecdc0;"/></g></g></svg>