<?xml version="1.0" encoding="UTF-8" standalone="no"?><!DOCTYPE svg PUBLIC "-//W3C//DTD SVG 1.1//EN" "http://www.w3.org/Graphics/SVG/1.1/DTD/svg11.dtd"><svg width="100%" height="100%" viewBox="0 0 800 681" version="1.1" xmlns="http://www.w3.org/2000/svg" xmlns:xlink="http://www.w3.org/1999/xlink" xml:space="preserve" xmlns:serif="http://www.serif.com/" style="fill-rule:evenodd;clip-rule:evenodd;stroke-linecap:round;stroke-linejoin:round;stroke-miterlimit:1.5;"><g><g><path d="M349.791,650.576c68.844,-13.184 412.956,-281.313 425.966,-316.996c44.212,-121.262 16.953,-316.723 -216.874,-327.103c-10.51,-0.467 -329.967,103.652 -425.403,177.915c17.188,-6.71 46.359,-37.146 79.791,-46.695c22.704,-6.485 52.654,-6.938 65.894,-6.938c143.516,-0 260.034,118.68 260.034,264.86c-0,121.256 -80.172,223.591 -189.408,254.957Z" style="fill:#5c4d31;stroke:#000;stroke-width:12.95px;"/><ellipse cx="279.165" cy="395.619" rx="260.034" ry="264.86" style="fill:#f3b700;"/><ellipse cx="279.165" cy="395.619" rx="260.206" ry="265.035" style="fill:#f3da01;"/><ellipse cx="262.067" cy="410.172" rx="255.156" ry="262.968" style="fill:#c8a76d;stroke:#000;stroke-width:13.82px;"/><ellipse cx="257.318" cy="415.022" rx="231.37" ry="238.453" style="fill:#d5af6d;"/><path d="M380.728,222.923c34.522,25.799 62.61,68.393 75.797,121.255c12.586,50.455 9.293,101.033 -6.231,142.52c7.656,-31.773 5.306,-82.713 -8.279,-137.171c-14.651,-58.734 -38.538,-106.198 -61.287,-126.604Z" style="fill:#f2dd9b;"/><path d="M54.513,410.996c-5.868,30.056 -1.345,66.37 14.923,101.464c15.527,33.495 38.911,59.75 64.398,75.383c-17.438,-13.921 -38.205,-42.972 -54.964,-79.125c-18.074,-38.992 -26.758,-76.047 -24.357,-97.722Z" style="fill:#cecdc0;"/></g><path d="M269.093,119.952c0,0 254.696,-99.997 291.261,-108.858c36.565,-8.86 131.13,31.645 147.521,49.366l-248.391,127.845c0,-0 -63.043,-75.948 -190.391,-68.353Z" style="fill:#5e4e39;"/><path d="M545.534,368.111c-0,0 25.775,97.797 -63.448,197.55c-0,0 265.688,-195.594 285.515,-236.668c19.828,-41.075 21.81,-142.784 11.897,-148.652l-233.964,187.77Z" style="fill:#5a482d;"/></g></svg>