<?xml version="1.0" encoding="UTF-8" standalone="no"?><!DOCTYPE svg PUBLIC "-//W3C//DTD SVG 1.1//EN" "http://www.w3.org/Graphics/SVG/1.1/DTD/svg11.dtd"><svg width="100%" height="100%" viewBox="0 0 1543 1492" version="1.1" xmlns="http://www.w3.org/2000/svg" xmlns:xlink="http://www.w3.org/1999/xlink" xml:space="preserve" xmlns:serif="http://www.serif.com/" style="fill-rule:evenodd;clip-rule:evenodd;stroke-linecap:round;stroke-linejoin:round;stroke-miterlimit:1.5;"><g><path d="M1172.92,289.04l45.223,30.235l-135.377,224.024l-45.223,-30.235l135.377,-224.024Z" style="fill:#b06d13;stroke:#000;stroke-width:15.56px;"/><path d="M428.736,147.738l-46.55,12.809l120.076,272.528l46.549,-12.809l-120.075,-272.528Z" style="fill:#b06d13;stroke:#000;stroke-width:15.56px;"/><path d="M1188.8,308.609l24.186,16.17l-126.855,209.921l-24.187,-16.17l126.856,-209.921Z" style="fill:#925d17;"/><path d="M411.843,161.084l-24.896,6.85l112.517,255.373l24.895,-6.851l-112.516,-255.372Z" style="fill:#925d17;"/><path d="M941.372,408.76c-243.453,-94.609 -509.223,-1.476 -593.125,207.848c-83.901,209.323 45.634,456.078 289.086,550.687c243.453,94.609 509.223,1.476 593.125,-207.848c83.901,-209.323 -45.634,-456.078 -289.086,-550.687Z"/><path d="M930.183,423.822c-229.994,-89.379 -480.911,-1.797 -559.976,195.459c-79.065,197.256 43.471,429.967 273.465,519.346c229.995,89.379 480.912,1.797 559.977,-195.459c79.064,-197.256 -43.471,-429.967 -273.466,-519.346Z" style="fill:#f3cf00;"/><path d="M834.075,672.31c-76.237,-29.627 -159.484,-0.406 -185.785,65.211c-26.302,65.618 14.24,142.944 90.476,172.571c76.236,29.626 159.484,0.406 185.785,-65.212c26.301,-65.617 -14.24,-142.944 -90.476,-172.57Z"/><path d="M824.456,672.333c-70.149,-27.261 -146.808,-0.227 -171.081,60.332c-24.274,60.559 12.971,131.858 83.12,159.119c70.149,27.261 146.808,0.227 171.082,-60.332c24.273,-60.56 -12.972,-131.858 -83.121,-159.119Z" style="fill:#f3da01;"/><path d="M854.108,698.702c-11.243,-10.624 -24.985,-19.458 -40.746,-25.583c-56.05,-21.782 -117.193,-1.364 -139.103,45.545c34.182,-40.066 97.043,-54.637 155.41,-31.955c8.658,3.365 16.82,7.395 24.439,11.993Z" style="fill:#fffe9e;"/><path d="M896.543,730.869c9.502,24.591 10.384,51.126 0.528,75.716c-23.664,59.039 -100.325,84.645 -171.086,57.147c-33.753,-13.117 -60.106,-35.963 -75.87,-62.679c10.795,38.617 42.004,73.486 86.38,90.731c70.149,27.261 146.808,0.227 171.082,-60.332c13.355,-33.32 8.087,-69.891 -11.034,-100.583Z" style="fill:#ecc503;"/><path d="M1192.31,657.93c17.652,71.131 14.363,146.049 -13.958,216.705c-79.597,198.585 -326.979,288.788 -552.087,201.308c-151.722,-58.962 -254.85,-183.688 -281.588,-319.517c5.798,158.5 119.859,313.987 298.457,383.393c230.926,89.741 482.859,1.804 562.244,-196.251c37.509,-93.58 29.828,-195.109 -13.068,-285.638Z" style="fill:#f3b700;"/><path d="M854.352,419.309c-76.288,2.428 -107.066,-1.312 -194.714,22.024c-75.226,20.03 -133.394,50.265 -168.792,66.943c81.61,-101.268 227.665,-141.773 360.583,-90.119c0.984,0.383 1.965,0.769 2.923,1.152Z" style="fill:#fffe9e;"/><path d="M407.779,160.372l794.285,150.105l218.236,1145.79l106.914,19.335l-218.064,-1144.89l134.085,25.34l2.102,-101.32l-1267.49,-239.532l-2.102,101.32l124.902,23.605l-285.447,1048.38l106.856,21.255l285.721,-1049.39Z" style="stroke:#000;stroke-width:30.4px;"/><path d="M404.269,164.766l799.054,151.008l219.651,1149.25l107.557,19.454l-219.479,-1148.35l134.89,25.492l2.105,-101.613l-1275.1,-240.974l-2.105,101.613l125.653,23.747l-287.056,1051.26l107.497,21.379l287.332,-1052.28Z" style="fill:#b06d13;stroke:#000;stroke-width:13.82px;"/><path d="M1251.87,315.813l220.299,1149.15l-48.62,-4.998l-214.877,-1148.36l43.198,4.209Z" style="fill:#925d17;"/><path d="M359.18,146.983l-295.097,1050.62l47.11,13.175l289.827,-1051.86l-41.84,-11.935Z" style="fill:#925d17;"/><path d="M1254.21,296.297l-894.755,-172.454l-1.27,26.765l894.71,169.458l1.315,-23.769Z" style="fill:#925d17;"/></g></svg>