<?xml version="1.0" encoding="UTF-8" standalone="no"?><!DOCTYPE svg PUBLIC "-//W3C//DTD SVG 1.1//EN" "http://www.w3.org/Graphics/SVG/1.1/DTD/svg11.dtd"><svg width="100%" height="100%" viewBox="0 0 1551 1534" version="1.1" xmlns="http://www.w3.org/2000/svg" xmlns:xlink="http://www.w3.org/1999/xlink" xml:space="preserve" xmlns:serif="http://www.serif.com/" style="fill-rule:evenodd;clip-rule:evenodd;stroke-linecap:round;stroke-linejoin:round;stroke-miterlimit:1.5;"><g><path d="M432.817,314.76l-46.64,31.524l122.327,222.295l46.64,-31.524l-122.327,-222.295Z" style="fill:#b06d13;stroke:#000;stroke-width:15.56px;"/><path d="M1180.73,154.653l45.593,11.779l-134.408,277.255l-45.593,-11.78l134.408,-277.254Z" style="fill:#b06d13;stroke:#000;stroke-width:15.56px;"/><path d="M415.948,334.842l-24.944,16.859l114.627,208.302l24.944,-16.86l-114.627,-208.301Z" style="fill:#bf8524;"/><path d="M1196.8,167.684l24.384,6.3l-125.947,259.801l-24.384,-6.299l125.947,-259.802Z" style="fill:#bf8524;"/><path d="M656.524,429.738c247.335,-101.089 506.544,-13.698 578.482,195.032c71.938,208.729 -70.461,460.263 -317.796,561.351c-247.334,101.089 -506.543,13.698 -578.481,-195.031c-71.939,-208.73 70.461,-460.263 317.795,-561.352Z"/><path d="M666.824,444.633c233.662,-95.5 478.403,-13.342 546.194,183.354c67.791,196.697 -66.875,433.924 -300.536,529.424c-233.662,95.501 -478.403,13.342 -546.195,-183.354c-67.791,-196.696 66.875,-433.923 300.537,-529.424Z" style="fill:#f3cf00;"/><path d="M748.75,692.5c77.452,-31.655 158.641,-4.234 181.192,61.198c22.551,65.432 -22.022,144.254 -99.474,175.91c-77.452,31.655 -158.641,4.234 -181.192,-61.198c-22.551,-65.432 22.022,-144.254 99.474,-175.91Z"/><path d="M758.315,692.292c71.267,-29.127 146.024,-3.749 166.837,56.639c20.812,60.387 -20.151,133.062 -91.418,162.19c-71.268,29.128 -146.025,3.75 -166.838,-56.638c-20.812,-60.387 20.151,-133.063 91.419,-162.191Z" style="fill:#f3da01;"/><path d="M727.374,719.552c11.766,-10.966 25.919,-20.189 41.932,-26.734c56.944,-23.274 116.632,-4.184 135.844,42.518c-31.793,-39.518 -93.513,-52.68 -152.81,-28.445c-8.797,3.596 -17.136,7.849 -24.966,12.661Z" style="fill:#fffe9e;"/><path d="M683.4,752.954c-10.802,24.985 -13.138,51.722 -4.687,76.242c20.289,58.871 95.127,82.813 167.016,53.431c34.291,-14.015 61.757,-37.648 78.904,-64.923c-12.859,39.138 -45.816,74.991 -90.899,93.417c-71.268,29.128 -146.025,3.75 -166.838,-56.638c-11.451,-33.225 -4.201,-70.17 16.504,-101.529Z" style="fill:#ecc503;"/><path d="M393.25,686.614c-21.467,72.036 -22.315,147.383 1.968,217.839c68.247,198.022 309.329,282.903 538.026,189.432c154.141,-63 263.567,-191.045 297.628,-328.435c-14.48,159.713 -136.472,318.989 -317.918,393.148c-234.608,95.887 -480.34,13.396 -548.406,-184.097c-32.161,-93.315 -18.939,-195.716 28.702,-287.887Z" style="fill:#f3b700;"/><path d="M742.492,438.271c75.741,0.615 106.558,-3.889 192.447,17.504c73.717,18.361 129.908,47.407 164.198,63.349c-75.601,-99.998 -218.637,-137.274 -353.674,-82.083c-1,0.409 -1.997,0.822 -2.971,1.23Z" style="fill:#fffe9e;"/><path d="M1200.88,166.87l-798.231,170.171l-280.049,1158.79l-107.398,22.03l279.829,-1157.88l-134.752,28.727l3.48,-101.956l1273.79,-271.552l-3.48,101.957l-125.523,26.759l226.259,1048.64l-107.445,23.961l-226.477,-1049.65Z" style="stroke:#000;stroke-width:30.4px;"/><path d="M1204.13,171.21l-803.024,171.194l-281.647,1162.31l-108.043,22.165l281.425,-1161.39l-135.561,28.9l3.494,-102.252l1281.43,-273.185l-3.493,102.251l-126.277,26.92l227.701,1051.5l-108.089,24.103l-227.921,-1052.52Z" style="fill:#b06d13;stroke:#000;stroke-width:13.82px;"/><path d="M352.822,343.607l-282.285,1162.22l48.631,-6.199l276.849,-1161.3l-43.195,5.273Z" style="fill:#925d17;"/><path d="M1249.95,152.225l235.735,1050.66l-47.58,14.394l-230.424,-1052.04l42.269,-13.019Z" style="fill:#925d17;"/><path d="M351.57,324.015l899.385,-195.08l-0.209,26.915l-899.176,192.064l-0,-23.899Z" style="fill:#925d17;"/></g></svg>