<?xml version="1.0" encoding="UTF-8" standalone="no"?><!DOCTYPE svg PUBLIC "-//W3C//DTD SVG 1.1//EN" "http://www.w3.org/Graphics/SVG/1.1/DTD/svg11.dtd"><svg width="100%" height="100%" viewBox="0 0 1378 1159" version="1.1" xmlns="http://www.w3.org/2000/svg" xmlns:xlink="http://www.w3.org/1999/xlink" xml:space="preserve" xmlns:serif="http://www.serif.com/" style="fill-rule:evenodd;clip-rule:evenodd;stroke-linecap:round;stroke-linejoin:round;stroke-miterlimit:1.5;"><g><path d="M305.609,96.01l-239.998,1062.26l20.619,-0l235.049,-1047.41l-15.67,-14.845Z" style="fill:#925d17;"/><path d="M325.744,12.323l-239.997,1062.26l20.618,-0l235.049,-1047.41l-15.67,-14.845Z" style="fill:#925d17;"/><g><path d="M348.828,67.138l-41.639,31.277l115.904,360.808l41.639,-31.276l-115.904,-360.809Z" style="fill:#b06d13;stroke:#000;stroke-width:15.56px;"/><path d="M1024.13,67.138l41.639,31.277l-115.904,360.808l-41.639,-31.276l115.904,-360.809Z" style="fill:#b06d13;stroke:#000;stroke-width:15.56px;"/><path d="M333.959,91.055l-18.724,14.064l108.608,338.095l18.724,-14.064l-108.608,-338.095Z" style="fill:#925d17;"/><path d="M1039,91.055l22.269,16.727l-108.608,338.096l-22.269,-16.728l108.608,-338.095Z" style="fill:#925d17;"/></g><path d="M657.137,281.733c223.902,-19.195 421.265,146.995 440.46,370.889c19.195,223.894 -147.001,421.252 -370.903,440.447c-223.901,19.196 -421.265,-146.994 -440.46,-370.888c-19.194,-223.894 147.002,-421.252 370.903,-440.448Z"/><path d="M662.776,299.345c211.525,-18.135 397.941,138.437 416.029,349.424c18.088,210.987 -138.957,397.004 -350.482,415.138c-211.524,18.134 -397.94,-138.437 -416.028,-349.424c-18.088,-210.987 138.957,-397.004 350.481,-415.138Z" style="fill:#f3cf00;"/><path d="M682.677,564.113c70.114,-6.011 131.923,46.09 137.94,116.275c6.017,70.185 -46.022,132.047 -116.136,138.058c-70.114,6.011 -131.923,-46.09 -137.94,-116.276c-6.017,-70.185 46.022,-132.046 116.136,-138.057Z"/><path d="M690.621,566.937c64.516,-5.531 121.403,42.568 126.956,107.342c5.553,64.775 -42.317,121.854 -106.832,127.385c-64.516,5.531 -121.402,-42.567 -126.956,-107.342c-5.553,-64.775 42.317,-121.854 106.832,-127.385Z" style="fill:#f3da01;"/><path d="M659.794,583.421c11.839,-6.847 25.314,-11.259 39.81,-12.501c51.549,-4.42 97.195,32.853 104.065,83.933c-18.653,-48.136 -67.122,-80.339 -120.801,-75.737c-7.963,0.683 -15.675,2.144 -23.074,4.305Z" style="fill:#fffe9e;"/><path d="M617.01,601.703c-13.746,20.661 -20.833,45.687 -18.578,71.988c5.413,63.148 62.644,109.887 127.722,104.308c31.043,-2.661 58.299,-16.749 77.73,-37.61c-18.175,33.649 -52.327,57.776 -93.139,61.275c-64.516,5.531 -121.402,-42.567 -126.956,-107.342c-3.055,-35.639 10.062,-68.948 33.221,-92.619Z" style="fill:#ecc503;"/><path d="M390.016,446.014c-31.635,62.629 -46.867,134.969 -40.388,210.544c18.21,212.408 201.076,370.446 408.106,352.698c139.538,-11.963 254.667,-100.748 309.314,-222.374c-42.77,149.329 -174.307,264.237 -338.563,278.318c-212.381,18.208 -399.552,-138.998 -417.713,-350.839c-8.581,-100.095 22.095,-194.592 79.244,-268.347Z" style="fill:#f3b700;"/><path d="M726.538,317.144c62.476,24.546 88.813,29.951 155.668,77.729c57.381,41.007 98.217,86.767 123.48,112.974c-43.192,-120.272 -154.212,-201.429 -276.456,-190.949c-0.905,0.078 -1.809,0.161 -2.692,0.246Z" style="fill:#fffe9e;"/><path d="M1046.86,104.176l-716.249,-0.674l-227.312,1046.46l-96.386,-0.915l227.133,-1045.64l-120.912,-0.114l0.915,-96.386l1142.96,1.075l-0.915,96.386l-112.632,-0.106l226.947,1044.78l-96.386,0.915l-227.165,-1045.79Z" style="fill:#b06d13;stroke:#000;stroke-width:13.82px;"/><path d="M67.388,1146.19l32.216,4.027l231.553,-1053.06l712.78,6.041l233.567,1043l20.135,-2.014l-233.567,-1071.18l-751.037,-4.027l-245.647,1077.22Z" style="fill:#925d17;"/></g></svg>