<svg xmlns="http://www.w3.org/2000/svg" viewBox="0 0 231.7 232.48"><defs><style>.cls-1{fill:#cf922c;}.cls-2{fill:#231f20;}.cls-3{fill:#f8c017;}.cls-4{fill:#fbe042;}</style></defs><g id="Layer_2" data-name="Layer 2"><g id="Layer_1-2" data-name="Layer 1"><circle class="cls-1" cx="115.88" cy="114" r="114"/><path class="cls-2" d="M222.07,72.47a110.68,110.68,0,0,1,9.23,54.79A116,116,0,0,1,225.41,155c-.83,2.22-1.57,4.49-2.56,6.65l-1.41,3.28-1.57,3.2c-1,2.17-2.24,4.21-3.37,6.31-.58,1-1.23,2-1.85,3.06s-1.22,2.05-1.91,3a116.41,116.41,0,0,1-42.06,38.27,114,114,0,0,1-26.85,10.32,119.09,119.09,0,0,1-28.58,3.39,121.71,121.71,0,0,1-28.55-3.67A118.3,118.3,0,0,1,60,218.21,121.16,121.16,0,0,1,36.69,201.4,116,116,0,0,1,18.3,179.49,117.29,117.29,0,0,1,5.89,153.83,119.41,119.41,0,0,1,.29,126a110.89,110.89,0,0,1,9.83-54.69,118.31,118.31,0,0,0-5.44,54.24,113.66,113.66,0,0,0,19.44,50,114.71,114.71,0,0,0,8.39,10.49,117.91,117.91,0,0,0,9.47,9.5,111.41,111.41,0,0,0,73.32,27.93,111.43,111.43,0,0,0,51.44-12.24,109.4,109.4,0,0,0,22.16-14.92c.86-.71,1.67-1.48,2.49-2.24l2.45-2.29,2.35-2.4c.78-.8,1.56-1.6,2.3-2.44l2.25-2.5c.74-.84,1.42-1.73,2.14-2.59,1.46-1.71,2.75-3.54,4.09-5.34a113.26,113.26,0,0,0,20-49.77A117.69,117.69,0,0,0,222.07,72.47Z"/><circle class="cls-3" cx="115.88" cy="95" r="95"/><circle class="cls-1" cx="116.38" cy="77" r="33"/><circle class="cls-4" cx="116.38" cy="71.5" r="27.5"/><path class="cls-4" d="M199.46,129.14a4.3,4.3,0,0,0-5.19,2,89,89,0,0,1-157.1-.57A4.28,4.28,0,0,0,32,128.53l-.08,0a4.26,4.26,0,0,0-2.54,5.79,95,95,0,0,0,172.67.65,4.26,4.26,0,0,0-2.49-5.81Z"/></g></g></svg>