<svg id="Layer_1" data-name="Layer 1" xmlns="http://www.w3.org/2000/svg" viewBox="0 0 512 460"><path d="M482,26H30a30,30,0,0,0,0,60H64.23l48.92,84.73A189.58,189.58,0,0,0,70.84,338.41q.61,2.76,1.34,5.49A188.36,188.36,0,0,0,92,391.83c.53.92,1.08,1.83,1.63,2.74s1,1.63,1.51,2.44c.3.49.6,1,.91,1.45.43.69.88,1.37,1.34,2.05s.78,1.18,1.18,1.77c1.16,1.74,2.36,3.47,3.59,5.17L74.76,434.81a30,30,0,0,0,42.43,42.43l27.36-27.37.26.18a188.85,188.85,0,0,0,103.71,35.8c1.22,0,2.44.09,3.66.11h.27c1.18,0,2.37,0,3.55,0q6.15,0,12.2-.39,2.4-.15,4.8-.36,3.62-.33,7.19-.78c1.57-.2,3.14-.42,4.7-.66h0c1.56-.24,3.12-.49,4.67-.78h0A190.15,190.15,0,0,0,426.16,380.5c.34-.69.68-1.38,1-2.07.2-.42.41-.85.61-1.28s.48-1,.71-1.51A189.7,189.7,0,0,0,398.8,170.82l49-84.82H482a30,30,0,0,0,0-60ZM169.21,149.57a10.08,10.08,0,0,0,2.34-1.13,11,11,0,0,0,1.07-.84A168.83,168.83,0,0,1,204,133.91a9.93,9.93,0,0,0,1.83-.38A170.24,170.24,0,0,1,256,126c93.74,0,170,76.26,170,170S349.74,466,256,466a170.67,170.67,0,0,1-97.1-30.47L211,383.4a20.13,20.13,0,0,0,5.16.69,19.86,19.86,0,0,0,14.14-5.85l13.34-13.34A70,70,0,1,0,186,296a70.86,70.86,0,0,0,1.1,12.34l-13.34,13.34A20,20,0,0,0,168.6,341L116.47,393.1a169.95,169.95,0,0,1,23.95-221.74,10,10,0,0,0,1.39-1.6A170.41,170.41,0,0,1,169.21,149.57Zm103.54,158-28.28-28.28a20,20,0,0,0-28.29,0l-9.67,9.67a50,50,0,1,1,56.57,56.57l9.67-9.67a20,20,0,0,0,0-28.29Zm-42.43-14.14,28.29,28.28L216.18,364.1l-28.27-28.27h0ZM103.05,463.1A10,10,0,0,1,88.91,449l25.88-25.88,7.58-7.58,0,0,6.35-6.35L180.83,357,195,371.17l-52.08,52.09-14,14ZM384.28,156a190,190,0,0,0-184.36-41.55,9.81,9.81,0,0,0-1.85.79,188.73,188.73,0,0,0-35.37,15.48,9.8,9.8,0,0,0-2.25,1.11h0a10.55,10.55,0,0,0-1,.75,190.76,190.76,0,0,0-31.19,23,6.27,6.27,0,0,0-.57.38L87.32,86H424.68ZM482,66H30a10,10,0,0,1,0-20H482a10,10,0,0,1,0,20Z" transform="translate(0 -26)"/><path d="M357.71,402.19a10,10,0,0,0,7.27-3.13A149.38,149.38,0,0,0,406,296a10,10,0,0,0-20,0,129.45,129.45,0,0,1-35.55,89.32,10,10,0,0,0,7.26,16.87Z" transform="translate(0 -26)"/><path d="M321,408.56h0a10,10,0,1,0,13.65,3.71A10,10,0,0,0,321,408.57Z" transform="translate(0 -26)"/></svg>