<svg xmlns="http://www.w3.org/2000/svg" viewBox="0 0 207.29 229.51"><g id="Layer_2" data-name="Layer 2"><g id="Layer_1-2" data-name="Layer 1"><path d="M107.87,84.56l3.89-6.74A17.94,17.94,0,0,0,114,66.91a15.85,15.85,0,0,0,5.4-3.49,33,33,0,0,0,4.33-5.58c2.28-3.46,4.47-7.3,5.1-11.93a17.13,17.13,0,0,0-.41-6.72L130.89,35a18,18,0,0,0-6.59-24.58l-13.8-8A18,18,0,0,0,85.91,9L77.33,23.85a16.35,16.35,0,0,0-6,4.08,33.27,33.27,0,0,0-4.86,7.34c-1.3,2.42-3,5.67-3.27,9.52a16.68,16.68,0,0,0-2.67,3.46L56.63,55a17.31,17.31,0,0,0-.91,1.83,17.56,17.56,0,0,0-8.15,6.78c-4.25,6.58-5.79,13.3-4.46,19.5l-40.7,70.5A18,18,0,0,0,9,178.22l13.81,8a18,18,0,0,0,9,2.41,18.36,18.36,0,0,0,4.71-.63,17.88,17.88,0,0,0,10.93-8.38L85.24,114a18.31,18.31,0,0,0,14.17-13.12c.19-.73.43-1.47.67-2.23l0-.13a31.86,31.86,0,0,0,1.73-7.76A17.87,17.87,0,0,0,107.87,84.56ZM12.8,159.62,50.17,94.9a53.58,53.58,0,0,0,8,5.85c1.69,1.06,3.33,2.22,5.08,3.46.91.65,1.85,1.3,2.78,1.94l4.86,3.41c.68.51,1.41,1,2.15,1.54L37,173.59a6,6,0,0,1-3.65,2.79,6.15,6.15,0,0,1-1.59.21,5.85,5.85,0,0,1-3-.8l-13.8-8A6,6,0,0,1,12.8,159.62Zm69.81-57.37a4.7,4.7,0,0,1-2.59-1L78.2,100l-.52-.38c-.92-.7-2-1.48-3.11-2.23-.69-.44-1.36-.9-2-1.36L60.91,87.89c-1.73-1.42-3.36-2.76-4.56-4-3.53-4.79-.71-10.7,1.3-13.8a5.78,5.78,0,0,1,2.25-2,6.54,6.54,0,0,0,.89.06,8.05,8.05,0,0,0,2-.28,16.72,16.72,0,0,1,2,.92L83.64,82a29.57,29.57,0,0,1,4.72,4,8.85,8.85,0,0,1,1.42,2.73c.42,1.42-.35,3.84-1.09,6.18-.3.93-.61,1.9-.87,2.89a6.22,6.22,0,0,1-4.57,4.38A3.63,3.63,0,0,1,82.61,102.25Zm-1-36.39c-1.07-.73-2.15-1.54-3.31-2.41a63.85,63.85,0,0,0-7.09-4.82l-2-1.39,1.73-3a5.23,5.23,0,0,1,1.59-1.67c.48-.18.88-.38,1.19-.53l.14-.07.16-.08a13.82,13.82,0,0,1,1.44-.47,5.32,5.32,0,0,1,.79,0,4.94,4.94,0,0,1,.87.07A15.86,15.86,0,0,1,80,52.79l.41.22c1.76.93,4.41,2.35,7.15,3.87.74.46,1.48.92,2.22,1.34l6,3.5c1.61,1,3.2,2,4.74,3.08a2.89,2.89,0,0,1,.31.37,5.74,5.74,0,0,1,.75,1.28,6,6,0,0,1-.29,5.37l-3.76,6.51a33,33,0,0,0-6-5.83c-2.08-1.59-4.22-2.93-6.32-4.25C84.07,67.48,82.8,66.68,81.6,65.86ZM86,34.46h.41c1.21.08,2.51.21,4,.35l23.17,4.07a4.7,4.7,0,0,1,3,2.24,5.71,5.71,0,0,1,.53,3.17c-.31,2.26-1.74,4.67-3.23,7A22.9,22.9,0,0,1,111,54.85a3.07,3.07,0,0,1-2,1,1.86,1.86,0,0,1-.33,0l-.56-.38a17.63,17.63,0,0,0-3-2.2l-3.12-1.8c-2.59-1.61-5.33-3.21-8.35-4.9l-1.2-.75c-3.64-2.33-7.77-5-12.48-6l-.39-.07h-.08a14.09,14.09,0,0,0-1.66-.29,17.15,17.15,0,0,1,2.23-3.29,5.17,5.17,0,0,1,3.52-1.55A20.22,20.22,0,0,1,86,34.46ZM101.54,12a5.91,5.91,0,0,1,2.95.8l13.81,8a6,6,0,0,1,2.41,7.78c-.17-.11-.35-.22-.54-.32l-.91-.53-2.92-.52a52.83,52.83,0,0,0-8.64-1.64c-1-.14-2-.27-3-.43-1.45-.24-2.92-.53-4.48-.84l-.13,0c-2.57-.51-5.39-1.07-8.32-1.43L96.3,15A6,6,0,0,1,100,12.21,6.15,6.15,0,0,1,101.54,12Z"/><path d="M205.27,200.8l-30.64-53.07c.85-4.91-.45-10.31-3.67-15.3a14.7,14.7,0,0,0-6.33-5.49c-.17-.35-.34-.69-.53-1l-3-5.11a13.66,13.66,0,0,0-1.87-2.53,19.87,19.87,0,0,0-2.63-7.31,25.88,25.88,0,0,0-3.89-5.84,13.85,13.85,0,0,0-4.58-3.26L141.9,91a15.09,15.09,0,0,0-20.64-5.53l-10.48,6a15.14,15.14,0,0,0-5.53,20.64l1.57,2.71a14.37,14.37,0,0,0-.21,5.06,23.62,23.62,0,0,0,4.1,9.66,26.25,26.25,0,0,0,3.48,4.46,13.43,13.43,0,0,0,3.6,2.55,15.15,15.15,0,0,0,2,8.08l3,5.12a14.81,14.81,0,0,0,4.44,4.81,27.88,27.88,0,0,0,1.31,5.52l0,.11c.18.55.35,1.09.49,1.62a15.45,15.45,0,0,0,11.23,10.87L168.63,222a15.1,15.1,0,0,0,20.63,5.54l10.49-6.05A15.13,15.13,0,0,0,205.27,200.8ZM179,216,152.3,169.67l.4-.3,4.1-2.87c.63-.44,1.25-.87,1.86-1.31,1.3-.92,2.52-1.79,3.78-2.57a50.08,50.08,0,0,0,4.95-3.43l27.49,47.61a3.12,3.12,0,0,1-1.13,4.25l-10.48,6A3.12,3.12,0,0,1,179,216Zm-48.85-77.24a3.2,3.2,0,0,1,.24-3.46l.08-.08c1.08-.73,2.2-1.46,3.29-2.14l4.63-2.67c.55-.32,1.11-.66,1.65-1,1.72-1,3.51-1.92,5.41-2.93l.31-.16a12.36,12.36,0,0,1,1.88-.89,1.73,1.73,0,0,1,.32,0l.26,0c.23.06.52.15.85.27l.15.08a9.79,9.79,0,0,0,.91.41,2.84,2.84,0,0,1,.61.7l.64,1.11-.39.28a53.31,53.31,0,0,0-5.47,3.71c-.84.64-1.64,1.24-2.44,1.79s-1.8,1.17-2.77,1.78c-1.6,1-3.25,2-4.9,3.3a28.87,28.87,0,0,0-3.44,3.08Zm-7.25-12.92a2,2,0,0,1-.33-.28,15.74,15.74,0,0,1-1.86-2.5,13.16,13.16,0,0,1-2.23-4.67,2.83,2.83,0,0,1,.28-1.59,2.34,2.34,0,0,1,1.36-.93l17.35-3c1-.1,2-.19,2.9-.25h.19a13.25,13.25,0,0,1,1.63.08,2.42,2.42,0,0,1,1.77.72c.13.15.27.31.4.48-3.64.91-6.75,2.89-9.52,4.65L134,119c-2.29,1.28-4.37,2.49-6.3,3.69l-2.41,1.39A14.37,14.37,0,0,0,122.92,125.79Zm-7.58-22a3.1,3.1,0,0,1,1.44-1.89l10.49-6.06a3.07,3.07,0,0,1,1.51-.4,2.91,2.91,0,0,1,.83.11,3.11,3.11,0,0,1,1.9,1.44l2.36,4.09c-1.39.23-2.8.5-4.28.79l-.19,0c-1.1.22-2.19.43-3.27.61-.69.12-1.43.21-2.27.32a40.76,40.76,0,0,0-6.71,1.28l-1.91.34A3.1,3.1,0,0,1,115.34,103.83Zm23.75,48.84a5.37,5.37,0,0,1,.82-1.56,22.37,22.37,0,0,1,3.24-2.73l14.24-10c.32-.17.62-.31.91-.43a6.55,6.55,0,0,0,1.44.16h.33a2.88,2.88,0,0,1,.81.82c1.3,2,3.16,5.82,1.09,8.75-.87.84-2.06,1.82-3.22,2.78L150,156.63l-1.51,1c-.92.59-1.7,1.18-2.45,1.75l-.34.25-1.35,1c-.71.45-1,.49-1.18.49l-.27,0a3.35,3.35,0,0,1-2.29-2.26c-.2-.74-.43-1.5-.68-2.26C139.51,155.26,138.9,153.33,139.09,152.67Z"/></g></g></svg>