<svg height="512pt" viewBox="-41 0 512 512" width="512pt" xmlns="http://www.w3.org/2000/svg"><path d="m423.105469 58.984375c-7-4.433594-16.265625-2.355469-20.703125 4.640625l-18.355469 28.972656c-41.503906-9.832031-71.933594 38.652344-45.585937 71.917969l-30.585938 48.265625-35.792969-142.691406c-9.765625-41.277344-46.09375-70.089844-88.378906-70.089844-42.28125 0-78.605469 28.8125-88.375 70.082031l-93.636719 373.289063c-8.746094 34.863281 17.523438 68.628906 53.335938 68.628906h257.351562c35.792969 0 62.089844-33.746094 53.339844-68.628906l-47.773438-190.4375 45.886719-72.410156c41.097657 9.261718 71.148438-38.433594 45.414063-71.648438l18.496094-29.1875c4.4375-7 2.359374-16.265625-4.636719-20.703125zm-298.601563 18.085937c6.523438-27.714843 30.867188-47.070312 59.199219-47.070312 26.863281 0 51.859375 17.492188 59.253906 47.285156l42.757813 170.460938-37.148438 58.621094c-16.144531-2.601563-32.871094-4.238282-49.863281-4.847657v-30.519531h15c8.285156 0 15-6.714844 15-15s-6.714844-15-15-15h-15v-30.25h15c8.285156 0 15-6.714844 15-15s-6.714844-15-15-15h-15v-30.25h15c8.285156 0 15-6.714844 15-15s-6.714844-15-15-15h-15v-18.136719c0-8.285156-6.714844-15-15-15-8.28125 0-15 6.714844-15 15v18.136719h-15c-8.28125 0-15 6.714844-15 15s6.71875 15 15 15h15v30.25h-15c-8.28125 0-15 6.714844-15 15s6.71875 15 15 15h15v30.25h-15c-8.28125 0-15 6.714844-15 15s6.71875 15 15 15h15v30.519531c-37.460937 1.339844-73.660156 7.675781-105.097656 18.332031.039062-.152343 60.863281-242.628906 60.898437-242.78125zm187.875 404.929688h-257.351562c-16.273438 0-28.230469-15.40625-24.238282-31.328125l23.902344-95.28125c74.238282-32.199219 183.875-32.164063 258.027344 0l23.898438 95.28125c3.996093 15.917969-7.960938 31.328125-24.238282 31.328125zm-8.574218-162.148438c-7.671876-2.601562-15.632813-4.941406-23.820313-7.015624l15.804687-24.9375zm69.898437-168.222656c-8.269531 0-15-6.785156-15-15.125s6.730469-15.125 15-15.125c8.15625 0 15 6.691406 15 15.125 0 8.339844-6.726563 15.125-15 15.125zm0 0"/><path d="m213.703125 391.625h-60c-8.28125 0-15 6.714844-15 15s6.71875 15 15 15h60c8.285156 0 15-6.714844 15-15s-6.714844-15-15-15zm0 0"/></svg>